<svg xmlns="http://www.w3.org/2000/svg" width="85.938" height="85.938" viewBox="0 0 22.738 22.738"><path d="M14.155 5.752c5.928-1.588 12.02 1.93 13.61 7.858 1.588 5.928-1.93 12.021-7.858 13.61-5.929 1.589-12.022-1.93-13.61-7.858-1.589-5.928 1.93-12.021 7.858-13.61Z" style="fill:var(--bgColor, #f9e440);stroke:var(--lineColor, #000000);stroke-width:.508;stroke-linecap:round;stroke-linejoin:miter;stroke-miterlimit:10;stroke-dasharray:none;stroke-opacity:1" transform="translate(-5.662 -5.117)"/><path d="M20.864 9.827c-.198-1.173-.964-1.993-1.849-1.911-.884.081-1.499 1.056-1.5 2.248a3.897 3.897 0 0 1 1.643-.527c.577-.053 1.156-.014 1.706.19zM13.7 11.158c-.568-1.031-1.59-1.591-2.395-1.196-.804.395-1.093 1.632-.707 2.753a4.412 4.412 0 0 1 1.437-1.126c.525-.257 1.082-.425 1.665-.43z" style="fill:var(--bgColor, #f9e440);stroke:var(--lineColor, #000000);stroke-width:.4572;stroke-linecap:round;stroke-linejoin:round;stroke-miterlimit:10;stroke-dasharray:none;stroke-opacity:1" transform="translate(-5.662 -5.117)"/><path d="M20.916 9.868c.015.09.033.183.041.277.11 1.314-.574 2.45-1.527 2.538-.859.079-1.67-.71-1.897-1.828-.045-.221-.128-.629-.054-.673a4.153 4.153 0 0 1 1.699-.536 4.003 4.003 0 0 1 1.738.222z" style="fill:var(--lineColor, #000000);fill-opacity:1;fill-rule:evenodd;stroke:var(--lineColor, #000000);stroke-width:.3556;stroke-linecap:round;stroke-linejoin:miter;stroke-miterlimit:10;stroke-dasharray:none;stroke-opacity:1" transform="translate(-5.662 -5.117)"/><path d="M13.723 11.122c.045.08.082.142.12.228.53 1.195.228 2.531-.639 2.956-.867.426-2.028-.18-2.558-1.375-.038-.086-.054-.081-.084-.168.38-.466.912-.892 1.437-1.15.525-.257 1.142-.485 1.724-.49z" style="fill:var(--lineColor, #000000);fill-opacity:1;fill-rule:evenodd;stroke:var(--lineColor, #000000);stroke-width:.3556;stroke-linecap:round;stroke-linejoin:round;stroke-miterlimit:10;stroke-dasharray:none;stroke-opacity:1" transform="translate(-5.662 -5.117)"/><path d="M25.017 13.137a18.678 18.678 0 0 1 1.726.46M7.148 18.814a18.952 18.952 0 0 1 1.292-1.296" style="fill:none;stroke:var(--lineColor, #000000);stroke-width:.508;stroke-linecap:round;stroke-linejoin:miter;stroke-miterlimit:10;stroke-dasharray:none;stroke-opacity:1" transform="translate(-5.662 -5.117)"/><path d="M25.84 13.31c.889 4.772-2.022 9.495-6.775 10.768-4.757 1.275-9.643-1.365-11.254-5.947" style="fill:none;stroke:var(--lineColor, #000000);stroke-width:.4572;stroke-linecap:round;stroke-linejoin:miter;stroke-miterlimit:10;stroke-dasharray:none;stroke-opacity:1" transform="translate(-5.662 -5.117)"/><path d="M25.814 13.322c-.407 3.994-3.26 7.43-7.365 8.53-4.128 1.106-8.28-.503-10.621-3.796" style="fill:none;stroke:var(--lineColor, #000000);stroke-width:.4572;stroke-linecap:round;stroke-linejoin:miter;stroke-miterlimit:10;stroke-dasharray:none;stroke-opacity:1" transform="translate(-5.662 -5.117)"/></svg>