<svg xmlns="http://www.w3.org/2000/svg" xmlns:xlink="http://www.w3.org/1999/xlink" width="512" height="512"><defs><radialGradient xlink:href="#a" id="b" cx="256" cy="256" r="240" fx="256" fy="256" gradientUnits="userSpaceOnUse"/><linearGradient id="a"><stop offset="0" style="stop-color:#9260da;stop-opacity:.73000002"/><stop offset="1" style="stop-color:#9260da;stop-opacity:.85955054"/></linearGradient></defs><circle cx="256" cy="256" r="240" style="fill:url(#b);fill-opacity:1;stroke-width:1.06459;opacity:1"/><path d="M167.825 470.951c-17.933 2.502-33.52.578-46.759-5.771-6.805-3.149-12.406-7.531-16.804-13.147-4.369-5.456-7.243-12.104-8.623-19.944-3.237-18.401 4.144-35.66 22.144-51.778 13.23-12.01 32.615-23.485 58.156-34.425l17.154-256.162L274.9 78.31l-16.18 235.862c17.033-7.622 30.01-17.301 38.931-29.038 9.548-12.48 16.478-29.592 20.611-51.316l23.76-3.317c-5.044 30.54-16.249 55.136-33.614 73.788-12.92 13.77-29.88 24.496-50.879 32.18l-2.347 36.72c-1.72 32.208-12.051 56.928-30.991 74.16-13.913 12.433-32.702 20.3-56.366 23.602zm-19.79-36.583c5.916-.825 11.291-5.264 16.126-13.315 5.047-7.917 8.018-19.561 8.912-34.932l1.114-14.663c-16.55 8.21-28.492 15.696-35.826 22.457-9.983 8.934-14.172 17.96-12.567 27.081.76 4.32 2.965 7.701 6.614 10.143 4.317 3.004 9.526 4.08 15.627 3.23zm156.23 17.547c-17.933 2.502-33.519.578-46.759-5.771-6.805-3.15-12.406-7.532-16.803-13.148-4.37-5.455-7.244-12.103-8.624-19.944-3.237-18.4 4.144-35.66 22.144-51.777 13.23-12.01 32.615-23.485 58.156-34.426l5.934-93.899 11.22-162.262 81.808-11.414-19.718 294.88c-1.72 32.207-12.051 56.926-30.991 74.159-13.913 12.433-32.702 20.3-56.366 23.602zm-19.79-36.583c5.916-.825 11.292-5.264 16.126-13.315 5.047-7.918 8.018-19.561 8.912-34.932l1.114-14.663c-16.55 8.21-28.492 15.696-35.826 22.457-9.983 8.934-14.172 17.96-12.567 27.08.76 4.321 2.965 7.702 6.615 10.143 4.316 3.005 9.525 4.081 15.626 3.23zM410.983 60.435c1.703 21.403 6.156 38.648 13.36 51.734 7.644 13.985 19.771 25.981 36.383 35.988l-3.602 28.19c-23.556-13.187-40.636-32.008-51.24-56.464-7.803-18.17-6.974-16.46-7.677-42.434" aria-label="jj" style="font-size:400px;font-family:Pattaya;-inkscape-font-specification:Pattaya;fill:#1a1a1a;fill-opacity:.85000002;stroke-width:1.337"/><path d="M155.825 454.951c-17.933 2.502-33.52.578-46.759-5.771-6.805-3.149-12.406-7.531-16.804-13.147-4.369-5.456-7.243-12.104-8.623-19.944-3.237-18.401 4.144-35.66 22.144-51.778 13.23-12.01 32.615-23.485 58.156-34.425l17.154-256.162L262.9 62.31l-16.18 235.862c17.033-7.622 30.01-17.301 38.931-29.038 9.548-12.48 16.478-29.592 20.611-51.316l23.76-3.317c-5.044 30.54-16.249 55.136-33.614 73.788-12.92 13.77-29.88 24.496-50.879 32.18l-2.347 36.72c-1.72 32.208-12.051 56.928-30.991 74.16-13.913 12.433-32.702 20.3-56.366 23.602zm-19.79-36.583c5.916-.825 11.291-5.264 16.126-13.315 5.047-7.917 8.018-19.561 8.912-34.932l1.114-14.663c-16.55 8.21-28.492 15.696-35.826 22.457-9.983 8.934-14.172 17.96-12.567 27.081.76 4.32 2.965 7.701 6.614 10.143 4.317 3.004 9.526 4.08 15.627 3.23zm156.23 17.547c-17.933 2.502-33.519.578-46.759-5.771-6.805-3.15-12.406-7.532-16.803-13.148-4.37-5.455-7.244-12.103-8.624-19.944-3.237-18.4 4.144-35.66 22.144-51.777 13.23-12.01 32.615-23.485 58.156-34.426l5.934-93.899 11.22-162.262 81.808-11.414-19.718 294.88c-1.72 32.207-12.051 56.926-30.991 74.159-13.913 12.433-32.702 20.3-56.366 23.602zm-19.79-36.583c5.916-.825 11.292-5.264 16.126-13.315 5.047-7.918 8.018-19.561 8.912-34.932l1.114-14.663c-16.55 8.21-28.492 15.696-35.826 22.457-9.983 8.934-14.172 17.96-12.567 27.08.76 4.321 2.965 7.702 6.615 10.143 4.316 3.005 9.525 4.081 15.626 3.23zM398.983 44.435c1.703 21.403 6.156 38.648 13.36 51.734 7.644 13.985 19.771 25.981 36.383 35.988l-3.602 28.19c-23.556-13.187-40.636-32.008-51.24-56.464-7.803-18.17-6.974-16.46-7.677-42.434" aria-label="jj" style="font-size:400px;font-family:Pattaya;-inkscape-font-specification:Pattaya;fill:#fff;stroke-width:1.337"/></svg>